<?xml version="1.0" standalone="no"?><!DOCTYPE svg PUBLIC "-//W3C//DTD SVG 1.1//EN" "http://www.w3.org/Graphics/SVG/1.1/DTD/svg11.dtd"><svg t="1607851667089" class="icon" viewBox="0 0 1024 1024" version="1.1" xmlns="http://www.w3.org/2000/svg" p-id="4744" id="mx_n_1607851667090" xmlns:xlink="http://www.w3.org/1999/xlink" width="400" height="400"><defs><style type="text/css"></style></defs><path d="M949.643636 586.565818a94.952727 94.952727 0 0 1 0 134.306909l-228.770909 228.770909A94.650182 94.650182 0 0 1 653.707636 977.454545a94.603636 94.603636 0 0 1-67.141818-27.810909L48.570182 411.671273l2.024727-2.024728H46.545455V96.162909C46.545455 68.770909 68.770909 46.545455 96.162909 46.545455h313.483636v4.072727l2.024728-2.048 537.972363 537.995636z m-49.361454 84.945455c6.4-6.4 7.354182-13.893818 7.354182-17.803637 0-3.886545-0.954182-11.357091-7.354182-17.757091L380.718545 116.363636H116.363636v264.354909l519.586909 519.563637a25.088 25.088 0 0 0 35.560728 0l228.770909-228.770909zM271.965091 200.727273a71.214545 71.214545 0 1 0 0 142.475636 71.214545 71.214545 0 0 0 0-142.475636" fill="#797979" p-id="4745"></path></svg>