<?xml version="1.0" standalone="no"?><!DOCTYPE svg PUBLIC "-//W3C//DTD SVG 1.1//EN" "http://www.w3.org/Graphics/SVG/1.1/DTD/svg11.dtd"><svg t="1607849804288" class="icon" viewBox="0 0 1024 1024" version="1.1" xmlns="http://www.w3.org/2000/svg" p-id="3956" xmlns:xlink="http://www.w3.org/1999/xlink" width="400" height="400"><defs><style type="text/css"></style></defs><path d="M865.8 924.2H161.2c-34.3 0-62.2-27.9-62.2-62.2V217.2c0-34.3 27.9-62.2 62.2-62.2h704.6c34.3 0 62.2 27.9 62.2 62.2V862c0 34.3-27.9 62.2-62.2 62.2zM161.2 196.5c-11.4 0-20.7 9.3-20.7 20.7V862c0 11.4 9.3 20.7 20.7 20.7h704.6c11.4 0 20.7-9.3 20.7-20.7V217.2c0-11.4-9.3-20.7-20.7-20.7H161.2z" fill="#333333" p-id="3957"></path><path d="M119.8 390.2h772.6v41.4H119.8zM260 533.9h87.8v87.8H260zM469.6 533.9h87.8v87.8h-87.8zM679.3 533.9h87.8v87.8h-87.8z" fill="#333333" p-id="3958"></path><path d="M260 685.8h87.8v87.8H260zM469.6 685.8h87.8v87.8h-87.8zM679.3 685.8h87.8v87.8h-87.8z" fill="#333333" p-id="3959"></path><path d="M333.6 251.7c-11.4 0-20.7-9.3-20.7-20.7V120.5c0-11.4 9.3-20.7 20.7-20.7s20.7 9.3 20.7 20.7V231c0 11.5-9.3 20.7-20.7 20.7zM693.5 251.7c-11.4 0-20.7-9.3-20.7-20.7V120.5c0-11.4 9.3-20.7 20.7-20.7s20.7 9.3 20.7 20.7V231c0 11.5-9.3 20.7-20.7 20.7z" fill="#333333" p-id="3960"></path></svg>